<svg xmlns="http://www.w3.org/2000/svg" width="24" height="24" fill="none"><path fill="#BAC5D3" fill-rule="evenodd" d="M5.74 4a.9.9 0 0 0-.9.9v3.375a.9.9 0 0 0 .9.9h3.375a.9.9 0 0 0 0-1.8H7.682A5.85 5.85 0 0 1 17.5 11.65a.9.9 0 0 0 1.8 0A7.65 7.65 0 0 0 11.65 4a7.65 7.65 0 0 0-5.01 1.887V4.9a.9.9 0 0 0-.9-.9ZM4.9 10.75a.9.9 0 0 0-.9.9 7.65 7.65 0 0 0 12.66 5.76v.99a.9.9 0 1 0 1.8 0v-3.376a.9.9 0 0 0-.873-.891l-.005.15v-.15h-3.397a.9.9 0 1 0 0 1.8h1.433A5.85 5.85 0 0 1 5.8 11.65a.9.9 0 0 0-.9-.9Z" clip-rule="evenodd"/></svg>